<svg width="965" height="650" viewBox="0 0 965 650" fill="none" xmlns="http://www.w3.org/2000/svg">
<rect x="676" y="298" width="20" height="30" rx="5" fill="#FF21FF"/>
<rect x="675.5" y="297.5" width="21" height="31" rx="5.5" stroke="#FEFDFD" stroke-opacity="0.1"/>
<rect x="675.5" y="297.5" width="21" height="31" rx="5.5" stroke="#FEFDFD" stroke-opacity="0.1"/>
<rect width="20" height="30" rx="5" transform="matrix(-1 0 0 1 258 298)" fill="#FEFDFD"/>
<rect x="0.5" y="-0.5" width="21" height="31" rx="5.5" transform="matrix(-1 0 0 1 259 298)" stroke="#FEFDFD" stroke-opacity="0.1"/>
<rect x="650" y="278" width="20" height="70" rx="10" fill="#FF21FF"/>
<rect x="649.5" y="277.5" width="21" height="71" rx="10.5" stroke="#FEFDFD" stroke-opacity="0.1"/>
<rect width="20" height="70" rx="10" transform="matrix(-1 0 0 1 284 278)" fill="#FEFDFD"/>
<rect x="0.5" y="-0.5" width="21" height="71" rx="10.5" transform="matrix(-1 0 0 1 285 278)" stroke="#FEFDFD" stroke-opacity="0.1"/>
<rect x="625" y="259" width="20" height="110" rx="10" fill="#FF21FF"/>
<rect x="624.5" y="258.5" width="21" height="111" rx="10.5" stroke="#FEFDFD" stroke-opacity="0.1"/>
<rect width="20" height="110" rx="10" transform="matrix(-1 0 0 1 309 259)" fill="#FEFDFD"/>
<rect x="0.5" y="-0.5" width="21" height="111" rx="10.5" transform="matrix(-1 0 0 1 310 259)" stroke="#FEFDFD" stroke-opacity="0.1"/>
<rect x="600" y="240" width="20" height="150" rx="10" fill="#FF21FF"/>
<rect x="599.5" y="239.5" width="21" height="151" rx="10.5" stroke="#FEFDFD" stroke-opacity="0.1"/>
<rect width="20" height="150" rx="10" transform="matrix(-1 0 0 1 334 240)" fill="#FEFDFD"/>
<rect x="0.5" y="-0.5" width="21" height="151" rx="10.5" transform="matrix(-1 0 0 1 335 240)" stroke="#FEFDFD" stroke-opacity="0.1"/>
<path fill-rule="evenodd" clip-rule="evenodd" d="M571.75 269.588L568 264.294L563.817 259H478V359H500.002V324.714H534.34V302.857H500.002V280.857H578L576.75 278.412L574.875 274.882L571.75 269.588Z" fill="url(#paint0_linear_28_35)"/>
<mask id="path-18-outside-1_28_35" maskUnits="userSpaceOnUse" x="345.137" y="198" width="245" height="234" fill="black">
<rect fill="white" x="345.137" y="198" width="245" height="234"/>
<path d="M573.77 258.882C583.387 275.486 588.864 294.582 588.864 314.9C588.864 378.91 534.527 430.8 467.5 430.8C443.494 430.8 421.117 424.142 402.28 412.657L410.265 391.709C426.408 402.7 446.163 409.165 467.5 409.165C522.015 409.165 566.209 366.962 566.209 314.9C566.209 293.921 559.031 274.543 546.895 258.882H573.77ZM467.5 199C504.41 199 537.47 214.736 559.729 239.565H526.841C510.324 227.681 489.774 220.635 467.5 220.635C412.985 220.635 368.791 262.839 368.791 314.9C368.791 339.141 378.373 361.243 394.116 377.944L385.56 400.394C361.331 379.204 346.137 348.747 346.137 314.9C346.137 250.891 400.473 199 467.5 199Z"/>
</mask>
<path d="M573.77 258.882C583.387 275.486 588.864 294.582 588.864 314.9C588.864 378.91 534.527 430.8 467.5 430.8C443.494 430.8 421.117 424.142 402.28 412.657L410.265 391.709C426.408 402.7 446.163 409.165 467.5 409.165C522.015 409.165 566.209 366.962 566.209 314.9C566.209 293.921 559.031 274.543 546.895 258.882H573.77ZM467.5 199C504.41 199 537.47 214.736 559.729 239.565H526.841C510.324 227.681 489.774 220.635 467.5 220.635C412.985 220.635 368.791 262.839 368.791 314.9C368.791 339.141 378.373 361.243 394.116 377.944L385.56 400.394C361.331 379.204 346.137 348.747 346.137 314.9C346.137 250.891 400.473 199 467.5 199Z" fill="url(#paint1_linear_28_35)"/>
<path d="M573.77 258.882L574.635 258.381L574.346 257.882H573.77V258.882ZM588.864 314.9L589.864 314.9V314.9H588.864ZM467.5 430.8L467.5 431.8H467.5V430.8ZM402.28 412.657L401.346 412.301L401.05 413.078L401.76 413.511L402.28 412.657ZM410.265 391.709L410.827 390.882L409.781 390.17L409.33 391.353L410.265 391.709ZM467.5 409.165L467.5 410.165H467.5V409.165ZM566.209 314.9L567.209 314.9V314.9H566.209ZM546.895 258.882V257.882H544.854L546.104 259.494L546.895 258.882ZM467.5 199L467.5 198L467.5 198L467.5 199ZM559.729 239.565V240.565H561.969L560.474 238.898L559.729 239.565ZM526.841 239.565L526.257 240.377L526.518 240.565H526.841V239.565ZM467.5 220.635L467.5 219.635L467.5 219.635L467.5 220.635ZM368.791 314.9L367.791 314.9L367.791 314.9L368.791 314.9ZM394.116 377.944L395.051 378.3L395.274 377.715L394.844 377.258L394.116 377.944ZM385.56 400.394L384.901 401.146L385.982 402.092L386.494 400.75L385.56 400.394ZM346.137 314.9L345.137 314.9L345.137 314.9L346.137 314.9ZM573.77 258.882L572.904 259.383C582.437 275.841 587.864 294.765 587.864 314.9H588.864H589.864C589.864 294.399 584.338 275.131 574.635 258.381L573.77 258.882ZM588.864 314.9L587.864 314.9C587.864 378.315 534.019 429.8 467.5 429.8V430.8V431.8C535.036 431.8 589.864 379.505 589.864 314.9L588.864 314.9ZM467.5 430.8L467.5 429.8C443.681 429.8 421.483 423.194 402.801 411.803L402.28 412.657L401.76 413.511C420.751 425.09 443.308 431.8 467.5 431.8L467.5 430.8ZM402.28 412.657L403.215 413.013L411.199 392.065L410.265 391.709L409.33 391.353L401.346 412.301L402.28 412.657ZM410.265 391.709L409.702 392.536C426.009 403.637 445.959 410.165 467.5 410.165L467.5 409.165L467.5 408.165C446.367 408.165 426.808 401.762 410.827 390.882L410.265 391.709ZM467.5 409.165V410.165C522.524 410.165 567.209 367.557 567.209 314.9L566.209 314.9L565.209 314.9C565.209 366.366 521.507 408.165 467.5 408.165V409.165ZM566.209 314.9H567.209C567.209 293.688 559.95 274.097 547.685 258.269L546.895 258.882L546.104 259.494C558.112 274.99 565.209 294.154 565.209 314.9H566.209ZM546.895 258.882V259.882H573.77V258.882V257.882H546.895V258.882ZM467.5 199V200C504.122 200 536.913 215.613 558.985 240.233L559.729 239.565L560.474 238.898C538.027 213.86 504.697 198 467.5 198V199ZM559.729 239.565V238.565H526.841V239.565V240.565H559.729V239.565ZM526.841 239.565L527.425 238.754C510.74 226.749 489.987 219.635 467.5 219.635V220.635V221.635C489.561 221.635 509.907 228.613 526.257 240.377L526.841 239.565ZM467.5 220.635L467.5 219.635C412.476 219.635 367.791 262.244 367.791 314.9H368.791H369.791C369.791 263.434 413.493 221.635 467.5 221.635L467.5 220.635ZM368.791 314.9L367.791 314.9C367.791 339.412 377.482 361.755 393.389 378.63L394.116 377.944L394.844 377.258C379.265 360.731 369.791 338.87 369.791 314.9L368.791 314.9ZM394.116 377.944L393.182 377.588L384.625 400.037L385.56 400.394L386.494 400.75L395.051 378.3L394.116 377.944ZM385.56 400.394L386.218 399.641C362.191 378.628 347.137 348.439 347.137 314.9L346.137 314.9L345.137 314.9C345.137 349.056 360.471 379.781 384.901 401.146L385.56 400.394ZM346.137 314.9H347.137C347.137 251.486 400.981 200 467.5 200L467.5 199L467.5 198C399.964 198 345.137 250.296 345.137 314.9H346.137Z" fill="#0C0B0B" mask="url(#path-18-outside-1_28_35)"/>
<path d="M418.227 313L403 295C408.888 280.432 412.366 273.741 418.227 259.216L418.314 259H418.561C426.18 259.012 433.801 259.023 441.42 259.034H441.648L441.721 259.237C453.781 292.423 465.848 325.606 477.922 358.787L478 359H477.761C469.711 358.992 461.661 358.984 453.611 358.976H453.505L453.473 358.88C445.469 334.606 437.457 310.333 429.445 286.062C426.433 293.854 423.421 301.65 420.407 309.449L420.399 309.471C420.399 309.471 420.971 305.824 418.227 313Z" fill="url(#paint2_linear_28_35)"/>
<path d="M411.696 293.262C400.36 285.413 381.508 289.027 380.099 289.15C378.69 289.273 395.77 289.743 406.037 301.616C416.305 313.488 417.265 316.351 421.812 327.741C426.358 339.132 431.074 352.472 432.739 355.274C434.404 358.075 440.274 368.367 449.774 371.465C459.275 374.564 467.388 369.924 467.388 369.924C467.388 369.924 456.948 369.971 451.376 365.431C444.798 360.071 443.308 354.349 439.551 343.872C435.795 333.394 423.031 301.111 411.696 293.262Z" fill="url(#paint3_linear_28_35)"/>
<path d="M380.055 288.652C380.696 288.596 385.845 287.653 392.18 287.716C398.518 287.778 406.188 288.84 411.98 292.85C414.894 294.868 417.859 298.423 420.718 302.731C423.584 307.05 426.37 312.17 428.914 317.361C434.002 327.745 438.14 338.454 440.022 343.703C443.796 354.23 445.245 359.791 451.692 365.044C454.374 367.229 458.271 368.335 461.555 368.887C463.187 369.162 464.648 369.296 465.701 369.362C466.227 369.395 466.651 369.41 466.942 369.418C467.087 369.422 467.199 369.423 467.275 369.424C467.312 369.424 467.34 369.424 467.359 369.425C467.368 369.425 467.375 369.425 467.38 369.425L467.385 369.424L469.284 369.416L467.636 370.358L467.636 370.359L467.635 370.359L467.627 370.364C467.623 370.366 467.615 370.371 467.607 370.375C467.589 370.385 467.564 370.399 467.531 370.416C467.465 370.452 467.369 370.502 467.245 370.565C466.996 370.69 466.633 370.863 466.168 371.061C465.238 371.456 463.9 371.949 462.261 372.343C458.984 373.13 454.481 373.527 449.619 371.941C444.747 370.352 440.833 366.93 437.94 363.585C435.044 360.237 433.141 356.927 432.309 355.529C431.871 354.792 431.251 353.398 430.506 351.581C429.757 349.753 428.867 347.462 427.889 344.907C425.932 339.793 423.619 333.618 421.347 327.927C419.069 322.22 417.707 318.695 415.637 315.109C413.57 311.528 410.787 307.873 405.659 301.943C400.611 296.106 393.875 293.059 388.546 291.456C385.885 290.656 383.584 290.218 382.035 289.974C381.261 289.851 380.676 289.778 380.32 289.73C380.161 289.708 380.006 289.686 379.919 289.664C379.914 289.662 379.826 289.642 379.742 289.586C379.725 289.575 379.512 289.439 379.517 289.157C379.523 288.864 379.755 288.738 379.777 288.726C379.868 288.675 379.961 288.664 379.966 288.663C379.997 288.658 380.028 288.654 380.055 288.652Z" stroke="#FEFDFD" stroke-opacity="0.1"/>
<path d="M399.696 302.262C388.36 294.413 369.508 298.027 368.099 298.15C366.69 298.273 383.77 298.743 394.037 310.616C404.305 322.488 405.265 325.351 409.812 336.741C414.358 348.132 419.074 361.472 420.739 364.274C422.404 367.075 428.274 377.367 437.774 380.465C447.275 383.564 455.388 378.924 455.388 378.924C455.388 378.924 444.948 378.971 439.376 374.431C432.798 369.071 431.308 363.349 427.551 352.872C423.795 342.394 411.031 310.111 399.696 302.262Z" fill="url(#paint4_linear_28_35)"/>
<path d="M368.055 297.652C368.696 297.596 373.845 296.653 380.18 296.716C386.518 296.778 394.188 297.84 399.98 301.85C402.894 303.868 405.859 307.423 408.718 311.731C411.584 316.05 414.37 321.17 416.914 326.361C422.002 336.745 426.14 347.454 428.022 352.703C431.796 363.23 433.245 368.791 439.692 374.044C442.374 376.229 446.271 377.335 449.555 377.887C451.187 378.162 452.648 378.296 453.701 378.362C454.227 378.395 454.651 378.41 454.942 378.418C455.087 378.422 455.199 378.423 455.275 378.424C455.312 378.424 455.34 378.425 455.359 378.425C455.368 378.425 455.375 378.425 455.38 378.425L455.385 378.424L457.284 378.416L455.636 379.358L455.636 379.359L455.635 379.359L455.627 379.364C455.623 379.366 455.615 379.371 455.607 379.375C455.589 379.385 455.564 379.399 455.531 379.416C455.465 379.452 455.369 379.502 455.245 379.565C454.996 379.69 454.633 379.863 454.168 380.061C453.238 380.456 451.9 380.949 450.261 381.343C446.984 382.13 442.481 382.527 437.619 380.941C432.747 379.352 428.833 375.93 425.94 372.585C423.044 369.237 421.141 365.927 420.309 364.529C419.871 363.792 419.251 362.398 418.506 360.581C417.757 358.753 416.867 356.462 415.889 353.907C413.932 348.793 411.619 342.618 409.347 336.927C407.069 331.22 405.707 327.695 403.637 324.109C401.57 320.528 398.787 316.873 393.659 310.943C388.611 305.106 381.875 302.059 376.546 300.456C373.885 299.656 371.584 299.218 370.035 298.974C369.261 298.851 368.676 298.778 368.32 298.73C368.161 298.708 368.006 298.686 367.919 298.664C367.914 298.662 367.826 298.642 367.742 298.586C367.725 298.575 367.512 298.439 367.517 298.157C367.523 297.864 367.755 297.738 367.777 297.726C367.868 297.675 367.961 297.664 367.966 297.663C367.997 297.658 368.028 297.654 368.055 297.652Z" stroke="#FEFDFD" stroke-opacity="0.1"/>
<path d="M385.78 372.922C382.452 370.554 377.648 366.101 378.191 365.724L398.149 312.016L405.184 316.658L413.712 326.95C408.094 342.335 393.849 379.306 393.849 379.306C393.849 379.306 388.511 375.341 385.78 372.922Z" fill="#FEFDFD"/>
<defs>
<linearGradient id="paint0_linear_28_35" x1="497.5" y1="295.5" x2="441.024" y2="203.832" gradientUnits="userSpaceOnUse">
<stop stop-color="#FF21FF"/>
<stop offset="0.697122" stop-color="#FEFDFD"/>
</linearGradient>
<linearGradient id="paint1_linear_28_35" x1="476" y1="306" x2="489" y2="320" gradientUnits="userSpaceOnUse">
<stop stop-color="#F5F5F5"/>
<stop offset="1" stop-color="#FF21FF"/>
</linearGradient>
<linearGradient id="paint2_linear_28_35" x1="422.903" y1="294.882" x2="563.521" y2="370.973" gradientUnits="userSpaceOnUse">
<stop stop-color="#F5F5F5"/>
<stop offset="0.267692" stop-color="#FF21FF"/>
</linearGradient>
<linearGradient id="paint3_linear_28_35" x1="419.115" y1="294.989" x2="464.617" y2="369.892" gradientUnits="userSpaceOnUse">
<stop stop-color="#FEFDFD"/>
<stop offset="0.727564" stop-color="#FF21FF"/>
</linearGradient>
<linearGradient id="paint4_linear_28_35" x1="410.905" y1="329.426" x2="444.504" y2="353.375" gradientUnits="userSpaceOnUse">
<stop stop-color="#FEFDFD"/>
<stop offset="1" stop-color="#FF21FF"/>
</linearGradient>
</defs>
</svg>
